<?xml version="1.0" encoding="utf-8"?>
<!-- Generator: Adobe Illustrator 16.0.0, SVG Export Plug-In . SVG Version: 6.00 Build 0)  -->
<!DOCTYPE svg PUBLIC "-//W3C//DTD SVG 1.1//EN" "http://www.w3.org/Graphics/SVG/1.1/DTD/svg11.dtd">
<svg version="1.1" id="Layer_1" xmlns="http://www.w3.org/2000/svg" xmlns:xlink="http://www.w3.org/1999/xlink" x="0px" y="0px"
	 width="100px" height="25px" viewBox="0 0 100 25" enable-background="new 0 0 100 25" xml:space="preserve">
<text transform="matrix(0.828 0 0 1 12.7695 14.2285)" fill="#1CB24B" font-family="'Impact'" font-size="14.1017">FIND         RECIPES</text>
<text transform="matrix(0.8898 0 0 1 3.3711 22.3232)" fill="#1CB24B" font-family="'ArialMT'" font-size="5.9266">          B E S T          S E A R C H</text>
<path fill="#1CB24B" d="M38.279,7.229c-0.015,0-0.03-0.001-0.045-0.004c-0.138-0.024-0.23-0.156-0.206-0.295
	c0.241-1.348,1.025-2.569,2.153-3.35c0.115-0.081,0.274-0.052,0.354,0.064c0.08,0.116,0.051,0.274-0.064,0.354
	c-1.018,0.705-1.725,1.806-1.942,3.021C38.507,7.143,38.399,7.229,38.279,7.229z M46.047,12.085c1.128-0.781,1.913-2.002,2.153-3.35
	c0.025-0.14-0.067-0.271-0.206-0.296c-0.137-0.024-0.27,0.067-0.295,0.205c-0.217,1.217-0.925,2.317-1.942,3.022
	c-0.116,0.08-0.144,0.237-0.064,0.353c0.049,0.073,0.128,0.109,0.209,0.109C45.953,12.129,46.003,12.117,46.047,12.085z
	 M44.937,4.428c-0.28,0-0.508,0.228-0.508,0.509v4.24c0,0.222-0.18,0.401-0.403,0.401c-0.222,0-0.403-0.18-0.403-0.401v-4.24
	c0-0.281-0.228-0.509-0.508-0.509c-0.281,0-0.509,0.228-0.509,0.509v4.24c0,0.222-0.18,0.401-0.403,0.401S41.8,9.398,41.8,9.176
	v-4.24c0-0.281-0.228-0.509-0.508-0.509s-0.509,0.228-0.509,0.509v5.383c0,0.991,0.621,1.402,1.495,1.538
	c-0.044,0.386-0.092,0.803-0.144,1.24c0.318,0.059,0.646,0.094,0.981,0.094c0.334,0,0.661-0.035,0.979-0.094
	c-0.052-0.437-0.1-0.854-0.144-1.24c0.874-0.136,1.496-0.545,1.496-1.538V4.937C45.446,4.655,45.218,4.428,44.937,4.428z
	 M44.338,15.123c-0.398,0.066-0.807,0.104-1.223,0.104c-0.417,0-0.826-0.037-1.224-0.104c-0.259,2.127-0.53,4.295-0.649,5.381
	c-0.325,2.955,0.608,3.549,1.872,3.549c1.264,0,2.198-0.594,1.873-3.549C44.867,19.418,44.597,17.25,44.338,15.123z M50,7.833
	c0-3.797-3.089-6.885-6.884-6.885c-3.797,0-6.886,3.088-6.886,6.885c0,3.796,3.089,6.886,6.886,6.886
	C46.911,14.719,50,11.628,50,7.833z M48.982,7.833c0,3.235-2.632,5.869-5.867,5.869c-3.236,0-5.869-2.633-5.869-5.869
	s2.633-5.868,5.869-5.868C46.35,1.965,48.982,4.597,48.982,7.833z"/>
</svg>
